<?xml version="1.0" standalone="no"?>
<!DOCTYPE svg PUBLIC "-//W3C//DTD SVG 20010904//EN"
 "http://www.w3.org/TR/2001/REC-SVG-20010904/DTD/svg10.dtd">
<svg version="1.0" xmlns="http://www.w3.org/2000/svg"
 width="336.000000pt" height="336.000000pt" viewBox="0 0 336.000000 336.000000"
 preserveAspectRatio="xMidYMid meet">
<metadata>
Created by potrace 1.11, written by Peter Selinger 2001-2013
</metadata>
<g transform="translate(0.000000,336.000000) scale(0.100000,-0.100000)"
fill="#000000" stroke="none">
<path d="M690 1690 l0 -1250 638 0 c682 0 792 6 932 51 214 68 385 244 462
472 16 49 21 93 24 207 3 161 -11 241 -63 349 -37 76 -149 187 -236 232 l-68
36 59 36 c112 69 194 186 221 315 14 68 14 235 0 304 -6 29 -30 94 -54 144
-78 163 -220 271 -425 326 -84 22 -96 22 -787 25 l-703 4 0 -1251z m1234 809
c163 -26 246 -113 246 -256 0 -105 -46 -182 -137 -230 -88 -47 -143 -53 -510
-53 l-333 0 0 275 0 276 338 -2 c185 0 364 -5 396 -10z m44 -974 c173 -41 262
-143 262 -299 0 -113 -33 -200 -99 -259 -99 -89 -143 -97 -583 -97 l-358 0 0
335 0 335 358 0 c280 0 371 -3 420 -15z"/>
</g>
</svg>
